<?xml version="1.0" encoding="UTF-8"?>
<svg width="407px" height="178px" viewBox="0 0 407 178" version="1.1" xmlns="http://www.w3.org/2000/svg" xmlns:xlink="http://www.w3.org/1999/xlink">
    <!-- Generator: Sketch 47.1 (45422) - http://www.bohemiancoding.com/sketch -->
    <title>Logo-LARGE-BLK</title>
    <desc>Created with Sketch.</desc>
    <defs></defs>
    <g id="styles-/-rollovers" stroke="none" stroke-width="1" fill="none" fill-rule="evenodd">
        <g id="Logo-LARGE-BLK" fill="#4A4A4A">
            <path d="M3,175 L404,175 L404,3.5 L3,3.5 L3,175 Z M0,178 L407,178 L407,0.5 L0,0.5 L0,178 Z" id="Fill-1"></path>
            <path d="M13.448,167.913 L393.552,167.913 L393.552,10.587 L13.448,10.587 L13.448,167.913 Z M11.448,169.913 L395.552,169.913 L395.552,8.587 L11.448,8.587 L11.448,169.913 Z" id="Fill-3"></path>
            <polyline id="Fill-4" points="43.025 37.996 37.597 37.996 37.597 63.909 31.178 63.909 31.178 37.996 25.75 37.996 25.75 31.578 43.025 31.578 43.025 37.996"></polyline>
            <polyline id="Fill-5" points="67.568 63.909 61.149 63.909 61.149 50.882 53.691 50.882 53.691 63.909 47.273 63.909 47.273 31.578 53.691 31.578 53.691 44.463 61.149 44.463 61.149 31.578 67.568 31.578 67.568 63.909"></polyline>
            <polyline id="Fill-6" points="92.348 63.909 75.12 63.909 75.12 31.578 92.348 31.578 92.348 37.996 81.539 37.996 81.539 44.463 92.348 44.463 92.348 50.882 81.539 50.882 81.539 57.49 92.348 57.49 92.348 63.909"></polyline>
            <path d="M142.285,47.767 C142.285,52.393 140.64,56.35 137.352,59.637 C134.063,62.926 130.107,64.57 125.481,64.57 C120.824,64.57 116.851,62.926 113.563,59.637 C110.275,56.35 108.631,52.393 108.631,47.767 C108.631,43.11 110.275,39.138 113.563,35.849 C116.851,32.561 120.824,30.917 125.481,30.917 C130.107,30.917 134.072,32.553 137.376,35.826 L132.854,40.357 C130.812,38.343 128.364,37.336 125.506,37.336 C122.617,37.336 120.152,38.354 118.112,40.39 C116.07,42.426 115.051,44.885 115.051,47.767 C115.051,50.618 116.07,53.061 118.11,55.097 C120.15,57.133 122.615,58.151 125.503,58.151 C129.112,58.151 131.952,56.687 134.024,53.761 L125.481,53.761 L125.481,47.767 L142.285,47.767" id="Fill-7"></path>
            <path d="M160.267,43.566 C160.267,42.025 159.724,40.711 158.639,39.625 C157.553,38.54 156.239,37.996 154.698,37.996 L152.951,37.996 L152.951,49.136 L154.698,49.136 C156.239,49.136 157.553,48.593 158.639,47.507 C159.724,46.422 160.267,45.108 160.267,43.566 Z M168.799,63.909 L160.267,63.909 L152.951,55.555 L152.951,63.909 L146.532,63.909 L146.532,31.578 L154.698,31.578 C158.001,31.578 160.825,32.751 163.17,35.096 C165.513,37.441 166.686,40.268 166.686,43.573 C166.686,45.776 166.11,47.831 164.96,49.735 C163.808,51.64 162.24,53.112 160.253,54.151 L168.799,63.909 L168.799,63.909 Z" id="Fill-8"></path>
            <polyline id="Fill-9" points="189.813 63.909 172.586 63.909 172.586 31.578 189.813 31.578 189.813 37.996 179.004 37.996 179.004 44.463 189.813 44.463 189.813 50.882 179.004 50.882 179.004 57.49 189.813 57.49 189.813 63.909"></polyline>
            <path d="M207.605,56.593 L204.412,48.272 L201.155,56.593 L207.605,56.593 Z M217.188,63.909 L210.311,63.909 L209.323,61.219 L199.474,61.219 L198.438,63.909 L191.559,63.909 L204.397,30.585 L217.188,63.909 L217.188,63.909 Z" id="Fill-10"></path>
            <polyline id="Fill-11" points="232.151 37.996 226.723 37.996 226.723 63.909 220.304 63.909 220.304 37.996 214.875 37.996 214.875 31.578 232.151 31.578 232.151 37.996"></polyline>
            <path d="M260.753,54.209 C260.753,53.304 260.43,52.523 259.786,51.867 C259.141,51.21 258.363,50.882 257.45,50.882 L255.089,50.882 L255.089,57.49 L257.45,57.49 C258.363,57.49 259.141,57.17 259.786,56.53 C260.43,55.89 260.753,55.116 260.753,54.209 Z M259.857,41.206 C259.857,40.326 259.544,39.57 258.921,38.941 C258.299,38.311 257.535,37.996 256.631,37.996 L255.089,37.996 L255.089,44.463 L256.631,44.463 C257.535,44.463 258.299,44.149 258.921,43.518 C259.544,42.89 259.857,42.12 259.857,41.206 Z M267.173,54.186 C267.173,56.861 266.221,59.15 264.317,61.053 C262.413,62.957 260.124,63.909 257.45,63.909 L248.67,63.909 L248.67,31.578 L256.647,31.578 C259.321,31.578 261.595,32.521 263.467,34.41 C265.339,36.298 266.276,38.563 266.276,41.206 C266.276,43.786 265.348,45.831 263.492,47.342 C265.946,48.884 267.173,51.165 267.173,54.186 L267.173,54.186 Z" id="Fill-12"></path>
            <path d="M286.572,43.566 C286.572,42.025 286.028,40.711 284.944,39.625 C283.858,38.54 282.542,37.996 281.001,37.996 L279.255,37.996 L279.255,49.136 L281.001,49.136 C282.542,49.136 283.858,48.593 284.944,47.507 C286.028,46.422 286.572,45.108 286.572,43.566 Z M295.103,63.909 L286.572,63.909 L279.255,55.555 L279.255,63.909 L272.836,63.909 L272.836,31.578 L281.001,31.578 C284.305,31.578 287.129,32.751 289.474,35.096 C291.818,37.441 292.991,40.268 292.991,43.573 C292.991,45.776 292.414,47.831 291.264,49.735 C290.113,51.64 288.544,53.112 286.558,54.151 L295.103,63.909 L295.103,63.909 Z" id="Fill-13"></path>
            <polygon id="Fill-14" points="298.89 63.909 305.309 63.909 305.309 31.578 298.89 31.578"></polygon>
            <polyline id="Fill-15" points="326.784 37.996 321.356 37.996 321.356 63.909 314.937 63.909 314.937 37.996 309.508 37.996 309.508 31.578 326.784 31.578 326.784 37.996"></polyline>
            <polygon id="Fill-16" points="331.032 63.909 337.451 63.909 337.451 31.578 331.032 31.578"></polygon>
            <path d="M355.291,53.368 C355.291,56.677 354.284,59.331 352.27,61.332 C350.255,63.334 347.613,64.334 344.34,64.334 C343.9,64.334 343.491,64.286 343.113,64.192 L343.113,57.726 C343.459,57.852 343.87,57.915 344.34,57.915 C345.568,57.915 346.629,57.459 347.526,56.546 C348.423,55.634 348.871,54.564 348.871,53.336 C348.871,52.078 348.077,50.261 346.489,47.885 C344.899,45.509 344.104,43.409 344.104,41.584 C344.104,38.406 345.056,35.866 346.96,33.961 C348.864,32.057 351.389,31.105 354.537,31.105 L354.537,37.486 C353.385,37.486 352.429,37.872 351.667,38.645 C350.905,39.417 350.524,40.401 350.524,41.599 C350.524,42.419 350.945,43.459 351.786,44.718 C353.094,46.703 353.857,47.901 354.076,48.311 C354.885,49.949 355.291,51.635 355.291,53.368" id="Fill-17"></path>
            <polyline id="Fill-18" points="381.25 63.909 374.831 63.909 374.831 50.882 367.373 50.882 367.373 63.909 360.954 63.909 360.954 31.578 367.373 31.578 367.373 44.463 374.831 44.463 374.831 31.578 381.25 31.578 381.25 63.909"></polyline>
            <path d="M40.181,103.607 L42.129,103.607 C43.6,103.607 44.806,103.11 45.816,102.09 C47,100.896 47.478,99.418 47.28,97.567 C47.201,96.826 46.937,96.126 46.519,95.541 C45.384,93.956 43.948,93.186 42.129,93.186 L40.181,93.186 L40.181,103.607 Z M42.129,105.658 L39.395,105.658 C38.698,105.658 38.13,105.09 38.13,104.392 L38.13,92.401 C38.13,91.703 38.698,91.136 39.395,91.136 L42.129,91.136 C44.622,91.136 46.66,92.216 48.186,94.348 C48.81,95.219 49.202,96.258 49.319,97.349 C49.583,99.817 48.895,101.897 47.273,103.533 C45.878,104.942 44.147,105.658 42.129,105.658 Z M40.181,128.731 L43.706,128.731 C45.321,128.731 46.645,128.131 47.754,126.898 C48.514,126.053 48.971,124.964 49.04,123.834 L49.04,123.833 C49.141,122.177 48.631,120.802 47.48,119.63 C46.428,118.558 45.193,118.037 43.706,118.037 L40.181,118.037 L40.181,128.731 Z M43.706,130.781 L39.395,130.781 C38.698,130.781 38.13,130.214 38.13,129.516 L38.13,117.251 C38.13,116.554 38.698,115.986 39.395,115.986 L43.706,115.986 C45.743,115.986 47.506,116.728 48.943,118.192 C50.502,119.78 51.224,121.72 51.087,123.959 L51.087,123.958 C50.99,125.55 50.347,127.081 49.279,128.269 C47.78,129.936 45.906,130.781 43.706,130.781 Z M56.268,110.762 C56.268,110.763 56.267,110.763 56.266,110.764 C56.267,110.763 56.268,110.763 56.268,110.762 Z M27.801,141.11 L43.706,141.11 C48.557,141.11 52.77,139.358 56.226,135.903 C59.681,132.449 61.432,128.236 61.432,123.384 C61.432,117.991 59.35,114.011 55.067,111.217 C54.731,110.996 54.52,110.629 54.496,110.234 C54.473,109.84 54.64,109.453 54.943,109.197 C58.145,106.486 59.703,102.938 59.703,98.353 C59.703,93.559 57.981,89.392 54.584,85.965 C51.19,82.542 47.009,80.807 42.159,80.807 L27.801,80.807 L27.801,141.11 Z M43.706,143.161 L27.015,143.161 C26.318,143.161 25.75,142.593 25.75,141.895 L25.75,80.022 C25.75,79.324 26.318,78.756 27.015,78.756 L42.159,78.756 C47.576,78.756 52.246,80.696 56.04,84.521 C59.831,88.345 61.754,92.998 61.754,98.353 C61.754,103.134 60.164,107.072 57.026,110.078 C61.31,113.216 63.483,117.687 63.483,123.384 C63.483,128.8 61.529,133.5 57.676,137.353 C53.821,141.207 49.121,143.161 43.706,143.161 L43.706,143.161 Z" id="Fill-19"></path>
            <path d="M90.431,112.928 L90.431,112.93 C90.431,112.929 90.431,112.928 90.431,112.928 Z M84.923,127.001 L94.369,127.001 L89.692,114.815 L84.923,127.001 Z M95.512,129.052 L83.772,129.052 C83.353,129.052 82.963,128.845 82.727,128.5 C82.491,128.153 82.441,127.715 82.594,127.325 L88.521,112.182 C88.711,111.692 89.174,111.376 89.699,111.376 C89.7,111.376 89.701,111.376 89.702,111.377 C90.228,111.378 90.691,111.695 90.88,112.187 L96.694,127.334 C96.843,127.724 96.79,128.16 96.554,128.504 C96.318,128.846 95.929,129.052 95.512,129.052 Z M98.267,137.458 C98.267,137.46 98.268,137.463 98.269,137.465 L98.267,137.458 Z M101.795,141.11 L112.849,141.11 L89.671,80.725 L66.409,141.11 L77.477,141.11 L79.163,136.731 C79.35,136.247 79.825,135.922 80.344,135.922 L99.003,135.922 C99.534,135.922 100.012,136.256 100.193,136.754 L101.795,141.11 Z M77.284,141.612 C77.283,141.613 77.283,141.614 77.282,141.616 L77.284,141.612 Z M113.992,143.161 L101.247,143.161 C100.719,143.161 100.242,142.827 100.059,142.332 L98.456,137.972 L80.883,137.972 L79.197,142.35 C79.012,142.833 78.537,143.161 78.016,143.161 L65.264,143.161 C64.847,143.161 64.457,142.956 64.221,142.612 C63.985,142.268 63.933,141.83 64.084,141.44 L88.492,78.082 C88.682,77.59 89.145,77.272 89.672,77.272 L89.673,77.272 C90.202,77.272 90.664,77.591 90.854,78.083 L115.173,141.441 C115.322,141.832 115.27,142.269 115.034,142.613 C114.798,142.956 114.408,143.161 113.992,143.161 L113.992,143.161 Z" id="Fill-20"></path>
            <path d="M149.473,80.42 L149.471,80.423 C149.472,80.422 149.473,80.421 149.473,80.42 Z M139.296,121.563 L139.295,121.565 C139.295,121.564 139.296,121.564 139.296,121.563 Z M133.747,130.94 L133.737,130.958 C133.74,130.952 133.744,130.946 133.747,130.94 Z M152.062,141.11 L164.213,141.11 L145.088,109.232 C144.848,108.831 144.848,108.332 145.087,107.932 L161.34,80.807 L149.244,80.807 L134.149,106.312 C133.856,106.809 133.286,107.041 132.727,106.889 C132.17,106.736 131.795,106.245 131.795,105.668 L131.795,80.807 L121.467,80.807 L121.467,141.11 L131.795,141.11 L131.795,130.558 C131.795,130.325 131.859,130.098 131.979,129.9 L137.53,120.52 C137.755,120.14 138.17,119.901 138.615,119.899 C138.616,119.899 138.618,119.899 138.62,119.899 C139.061,119.899 139.476,120.135 139.704,120.514 L152.062,141.11 Z M152.285,141.48 L152.291,141.491 C152.289,141.487 152.287,141.483 152.285,141.48 Z M165.6,143.161 L151.617,143.161 C151.171,143.161 150.754,142.923 150.528,142.539 L138.624,122.699 L133.846,130.772 L133.846,141.895 C133.846,142.593 133.278,143.161 132.581,143.161 L120.681,143.161 C119.983,143.161 119.416,142.593 119.416,141.895 L119.416,80.022 C119.416,79.324 119.983,78.756 120.681,78.756 L132.581,78.756 C133.278,78.756 133.846,79.324 133.846,80.022 L133.846,102.798 L147.707,79.378 C147.933,78.995 148.35,78.756 148.796,78.756 L162.726,78.756 C163.181,78.756 163.602,79.002 163.827,79.397 C164.051,79.792 164.046,80.28 163.813,80.671 L147.089,108.582 L166.685,141.244 C166.919,141.637 166.925,142.125 166.7,142.52 C166.476,142.916 166.055,143.161 165.6,143.161 L165.6,143.161 Z" id="Fill-21"></path>
            <path d="M173.259,141.11 L204.433,141.11 L204.433,130.781 L184.853,130.781 C184.156,130.781 183.588,130.214 183.588,129.516 L183.588,117.251 C183.588,116.554 184.156,115.986 184.853,115.986 L204.433,115.986 L204.433,105.658 L184.853,105.658 C184.156,105.658 183.588,105.09 183.588,104.392 L183.588,92.401 C183.588,91.703 184.156,91.136 184.853,91.136 L204.433,91.136 L204.433,80.807 L173.259,80.807 L173.259,141.11 Z M205.219,143.161 L172.474,143.161 C171.776,143.161 171.209,142.593 171.209,141.895 L171.209,80.022 C171.209,79.324 171.776,78.756 172.474,78.756 L205.219,78.756 C205.916,78.756 206.484,79.324 206.484,80.022 L206.484,91.922 C206.484,92.619 205.916,93.186 205.219,93.186 L185.639,93.186 L185.639,103.607 L205.219,103.607 C205.916,103.607 206.484,104.175 206.484,104.872 L206.484,116.771 C206.484,117.47 205.916,118.037 205.219,118.037 L185.639,118.037 L185.639,128.731 L205.219,128.731 C205.916,128.731 206.484,129.299 206.484,129.996 L206.484,141.895 C206.484,142.593 205.916,143.161 205.219,143.161 L205.219,143.161 Z" id="Fill-22"></path>
            <path d="M259.069,92.095 C253.827,92.095 249.287,93.959 245.574,97.639 C241.861,101.312 239.978,105.824 239.978,111.05 C239.978,116.218 241.862,120.716 245.576,124.419 C249.288,128.125 253.828,130.005 259.069,130.005 C264.249,130.005 268.759,128.125 272.473,124.419 C275.723,121.178 277.576,117.328 277.981,112.977 C278.604,106.323 275.624,99.698 270.207,95.686 C266.994,93.303 263.246,92.095 259.069,92.095 Z M259.069,132.056 C253.265,132.056 248.238,129.975 244.127,125.871 C240.013,121.768 237.927,116.782 237.927,111.05 C237.927,105.256 240.014,100.254 244.13,96.181 C248.242,92.109 253.267,90.044 259.069,90.044 C263.695,90.044 267.853,91.388 271.429,94.037 C277.418,98.475 280.711,105.805 280.023,113.168 C279.572,118.008 277.519,122.282 273.921,125.871 C269.81,129.975 264.812,132.056 259.069,132.056 Z M259.069,79.533 C250.412,79.533 242.922,82.633 236.81,88.745 C230.698,94.857 227.599,102.347 227.599,111.004 C227.599,119.601 230.698,127.06 236.81,133.172 C242.921,139.285 250.411,142.385 259.069,142.385 C267.667,142.385 275.125,139.285 281.238,133.172 C287.351,127.059 290.45,119.601 290.45,111.004 C290.45,102.349 287.351,94.859 281.238,88.745 C275.123,82.633 267.665,79.533 259.069,79.533 Z M259.069,144.435 C249.847,144.435 241.87,141.133 235.36,134.622 C228.849,128.112 225.548,120.166 225.548,111.004 C225.548,101.782 228.849,93.807 235.36,87.295 C241.871,80.784 249.849,77.482 259.069,77.482 C268.229,77.482 276.175,80.784 282.688,87.295 C289.2,93.809 292.5,101.785 292.5,111.004 C292.5,120.164 289.2,128.11 282.688,134.622 C276.177,141.133 268.231,144.435 259.069,144.435 L259.069,144.435 Z" id="Fill-23"></path>
            <path d="M302.967,141.11 L313.296,141.11 L313.296,117.251 C313.296,116.554 313.864,115.986 314.561,115.986 L334.141,115.986 L334.141,105.658 L314.561,105.658 C313.864,105.658 313.296,105.09 313.296,104.392 L313.296,92.401 C313.296,91.703 313.864,91.136 314.561,91.136 L334.141,91.136 L334.141,80.807 L302.967,80.807 L302.967,141.11 Z M314.081,143.161 L302.181,143.161 C301.485,143.161 300.916,142.593 300.916,141.895 L300.916,80.022 C300.916,79.324 301.485,78.756 302.181,78.756 L334.927,78.756 C335.624,78.756 336.192,79.324 336.192,80.022 L336.192,91.922 C336.192,92.619 335.624,93.186 334.927,93.186 L315.347,93.186 L315.347,103.607 L334.927,103.607 C335.624,103.607 336.192,104.175 336.192,104.872 L336.192,116.771 C336.192,117.47 335.624,118.037 334.927,118.037 L315.347,118.037 L315.347,141.895 C315.347,142.593 314.779,143.161 314.081,143.161 L314.081,143.161 Z" id="Fill-24"></path>
            <path d="M348.026,141.11 L358.354,141.11 L358.354,117.251 C358.354,116.554 358.921,115.986 359.619,115.986 L379.2,115.986 L379.2,105.658 L359.619,105.658 C358.921,105.658 358.354,105.09 358.354,104.392 L358.354,92.401 C358.354,91.703 358.921,91.136 359.619,91.136 L379.2,91.136 L379.2,80.807 L348.026,80.807 L348.026,141.11 Z M359.139,143.161 L347.24,143.161 C346.542,143.161 345.975,142.593 345.975,141.895 L345.975,80.022 C345.975,79.324 346.542,78.756 347.24,78.756 L379.986,78.756 C380.682,78.756 381.25,79.324 381.25,80.022 L381.25,91.922 C381.25,92.619 380.682,93.186 379.986,93.186 L360.405,93.186 L360.405,103.607 L379.986,103.607 C380.682,103.607 381.25,104.175 381.25,104.872 L381.25,116.771 C381.25,117.47 380.682,118.037 379.986,118.037 L360.405,118.037 L360.405,141.895 C360.405,142.593 359.837,143.161 359.139,143.161 L359.139,143.161 Z" id="Fill-25"></path>
            <path d="M375.583,138.406 L377.539,138.406 C379.012,138.406 379.725,137.854 379.725,136.726 C379.725,135.6 379.08,135.094 377.701,135.094 L375.583,135.094 L375.583,138.406 Z M377.954,134.15 C380.024,134.15 381.151,135.024 381.151,136.658 C381.151,137.671 380.599,138.43 379.564,138.844 C380.714,139.258 380.991,139.81 381.037,141.72 C381.082,142.617 381.129,142.87 381.267,143.146 L379.886,143.146 C379.748,142.916 379.725,142.594 379.657,141.444 C379.587,140.362 379.449,139.926 379.036,139.649 C378.713,139.419 378.161,139.304 377.447,139.304 L375.583,139.304 L375.583,143.146 L374.157,143.146 L374.157,134.15 L377.954,134.15 Z M370.752,138.637 C370.752,142.41 373.812,145.516 377.539,145.516 C381.289,145.516 384.327,142.433 384.327,138.637 C384.327,134.863 381.289,131.734 377.631,131.734 C373.788,131.734 370.752,134.771 370.752,138.637 Z M385.477,138.637 C385.477,143.008 381.933,146.574 377.539,146.574 C373.167,146.574 369.602,143.008 369.602,138.637 C369.602,134.196 373.145,130.676 377.655,130.676 C381.933,130.676 385.477,134.288 385.477,138.637 L385.477,138.637 Z" id="Fill-26"></path>
        </g>
    </g>
</svg>